<svg id="Layer_1" data-name="Layer 1" xmlns="http://www.w3.org/2000/svg" viewBox="0 0 2402.3 360.27"><defs><style>.cls-1{fill:#e95420;}.cls-2{fill:#fff;}.cls-3{fill:#111;}</style></defs><rect class="cls-1" width="233.93" height="360.27"/><circle class="cls-2" cx="51.02" cy="237.8" r="24.55"/><circle class="cls-2" cx="153.26" cy="183.97" r="24.55"/><path class="cls-2" d="M106.39,301a59.81,59.81,0,0,1-40.77-31.1,35.25,35.25,0,0,1-21,2.58,80.37,80.37,0,0,0,75,50A35.15,35.15,0,0,1,112.41,302C110.39,301.77,108.38,301.43,106.39,301Z"/><circle class="cls-2" cx="147.73" cy="301.11" r="24.55"/><path class="cls-2" d="M181.89,292.1a80.33,80.33,0,0,0,4-94.24A35.51,35.51,0,0,1,172.11,214a60.25,60.25,0,0,1-2,59.78A35.16,35.16,0,0,1,181.89,292.1Z"/><path class="cls-2" d="M49.13,202.59c.62,0,1.24-.05,1.87-.05a35.47,35.47,0,0,1,18.61,5.3,59.88,59.88,0,0,1,48.22-25.78,35.62,35.62,0,0,1,7.44-19.91A80.66,80.66,0,0,0,49.13,202.59Z"/><path class="cls-3" d="M358.14,331.73a75.2,75.2,0,0,1-29.36-5.66,66.46,66.46,0,0,1-23.59-16.51,77.88,77.88,0,0,1-15.8-26.83q-5.79-15.9-5.78-36.44t6.25-36.44a80.78,80.78,0,0,1,16.63-26.78,68.78,68.78,0,0,1,24.06-16.34,75.45,75.45,0,0,1,28.54-5.54,109.05,109.05,0,0,1,16.74,1.18,90.78,90.78,0,0,1,22.84,6.46,43.06,43.06,0,0,1,6.14,3.19l-5.19,13.91a95.32,95.32,0,0,0-15-7q-9.09-3.42-22.53-3.42-15.33,0-26.77,5.19a52.89,52.89,0,0,0-19.22,14.62,63.34,63.34,0,0,0-11.68,22.41,100,100,0,0,0-3.89,28.77,103.35,103.35,0,0,0,3.89,29.37,62.93,62.93,0,0,0,11.44,22.29,50.53,50.53,0,0,0,18.52,14.15,60.44,60.44,0,0,0,25.12,5q15.57,0,26.06-2.95t15.92-6L406,322a27.64,27.64,0,0,1-5.67,2.72q-4,1.53-10.14,3.18A111.41,111.41,0,0,1,376,330.64,135.68,135.68,0,0,1,358.14,331.73Z"/><path class="cls-3" d="M428.22,328.17V148l15.33-2.83v64.6a98.2,98.2,0,0,1,15.33-4.37,81.37,81.37,0,0,1,15.57-1.53q14.15,0,23.59,4a36.56,36.56,0,0,1,15.09,11.44,44.36,44.36,0,0,1,7.9,17.81A107.93,107.93,0,0,1,523.27,260v68.17H507.94V265A115.16,115.16,0,0,0,506.17,243a36.73,36.73,0,0,0-5.89-14.63,23.09,23.09,0,0,0-11-8.14q-6.84-2.46-17.22-2.47a56.5,56.5,0,0,0-8.61.71c-3.06.47-5.94,1-8.61,1.53s-5.07,1.14-7.19,1.77a32.94,32.94,0,0,0-4.13,1.41v105Z"/><path class="cls-3" d="M592.33,203.39q12,0,20.41,3.42a35,35,0,0,1,13.56,9.43,37.23,37.23,0,0,1,7.55,14.27,65,65,0,0,1,2.36,17.93v76.9q-2.37.71-6.84,1.53T619,328.64c-3.94.62-8.3,1.14-13.09,1.53s-9.71.59-14.74.59a70.8,70.8,0,0,1-17.81-2.12,39.37,39.37,0,0,1-14.16-6.73,31.6,31.6,0,0,1-9.43-11.79q-3.42-7.17-3.42-17.57a35.77,35.77,0,0,1,3.77-17,32.29,32.29,0,0,1,10.62-11.68,47.34,47.34,0,0,1,16.26-6.7,93.71,93.71,0,0,1,20.52-2.12c2.2,0,4.52.11,7,.35s4.8.55,7.08.94,4.24.79,5.89,1.18a19.72,19.72,0,0,1,3.43,1.06V251a79.13,79.13,0,0,0-1-12.39,27.1,27.1,0,0,0-4.13-10.85,23,23,0,0,0-9-7.78q-5.77-3-15.21-3-13.46,0-20,1.89T561.91,222l-2.13-13.44A57.34,57.34,0,0,1,572.17,205,106.36,106.36,0,0,1,592.33,203.39Zm1.42,113.69q9,0,15.68-.59A105.25,105.25,0,0,0,620.88,315V272a48.48,48.48,0,0,0-8.26-2.48,73.93,73.93,0,0,0-15.57-1.3,89.5,89.5,0,0,0-11.79.83,34.18,34.18,0,0,0-11.32,3.54,23.46,23.46,0,0,0-8.49,7.43q-3.32,4.71-3.31,12.5a26.86,26.86,0,0,0,2.24,11.56,18.71,18.71,0,0,0,6.37,7.54,28,28,0,0,0,9.91,4.13A59.33,59.33,0,0,0,593.75,317.08Z"/><path class="cls-3" d="M710.88,203.86A83.2,83.2,0,0,1,725.15,205a44.7,44.7,0,0,1,9.32,2.36l-3.07,13.21a34.38,34.38,0,0,0-7.67-2,89,89,0,0,0-15.21-1.06A72.13,72.13,0,0,0,692.6,219a44.32,44.32,0,0,0-7.9,2.36V328.17H669.37V211.88a113.26,113.26,0,0,1,16.27-5.31Q696,203.87,710.88,203.86Z"/><path class="cls-3" d="M754.23,210.47q6.84-1.89,17.81-4.25t28.42-2.36q23.12,0,33.49,13.45c.79-.62,2.32-1.69,4.6-3.19a65.8,65.8,0,0,1,20.76-8.61,66.9,66.9,0,0,1,15.45-1.65q13.92,0,22.53,4.13a31.36,31.36,0,0,1,13.32,11.56,46.42,46.42,0,0,1,6.37,17.8A145.58,145.58,0,0,1,918.63,260v68.17H903.3V265a177.46,177.46,0,0,0-1.06-20.87A40.29,40.29,0,0,0,898,229.45a20.68,20.68,0,0,0-9.08-8.72q-5.89-3-15.33-2.95a58.39,58.39,0,0,0-12.85,1.3,53.86,53.86,0,0,0-10,3.18,43.3,43.3,0,0,0-7,3.77c-1.81,1.26-3.1,2.21-3.89,2.83a72.71,72.71,0,0,1,3.19,13.8,119.72,119.72,0,0,1,1.06,16.16v69.35H828.77V265a177.46,177.46,0,0,0-1.07-20.87,38.74,38.74,0,0,0-4.36-14.63,21.28,21.28,0,0,0-9.34-8.72q-6-3-15.92-2.95A126.42,126.42,0,0,0,779.33,219c-5.11.79-8.37,1.49-9.79,2.12V328.17H754.23Z"/><path class="cls-3" d="M945,267.07q0-16,4.6-27.95a62,62,0,0,1,12-19.93,47.63,47.63,0,0,1,17-11.91,51.78,51.78,0,0,1,19.69-3.89q22.41,0,35.73,14.62t13.33,45.05c0,1.27,0,2.52-.12,3.78s-.2,2.44-.35,3.54H961.23q.71,22.41,11.09,34.43t33,12q12.49,0,19.81-2.36a80.23,80.23,0,0,0,10.61-4l2.83,13.21q-3.3,1.89-12.38,4.49a78.38,78.38,0,0,1-21.34,2.59q-16.05,0-27.37-4.72a49,49,0,0,1-18.63-13.21,52.13,52.13,0,0,1-10.61-20.16A93.17,93.17,0,0,1,945,267.07Zm86.57-9.67q-.48-19.09-9-29.72T998.5,217.07a32.06,32.06,0,0,0-14.75,3.3,37.66,37.66,0,0,0-11.32,8.85,41,41,0,0,0-7.54,12.85,52.58,52.58,0,0,0-3.19,15.33Z"/><path class="cls-3" d="M1173.16,324.39a138.4,138.4,0,0,1-17.46,4.48q-10.6,2.13-26.89,2.13a65.46,65.46,0,0,1-24.41-4.37A52.75,52.75,0,0,1,1085.53,314a57,57,0,0,1-12.26-20,76.28,76.28,0,0,1-4.37-26.65,85.36,85.36,0,0,1,3.66-25.59,58.1,58.1,0,0,1,10.73-20.17,48.88,48.88,0,0,1,17.34-13.21,55.74,55.74,0,0,1,23.47-4.71A58,58,0,0,1,1145,207.1q8.85,3.42,12.85,6.48V148l15.34-2.83Zm-15.34-96a50.55,50.55,0,0,0-12.73-7.07,60.3,60.3,0,0,0-9.2-2.72,50.23,50.23,0,0,0-10.38-1.06q-11.33,0-19,4a34.33,34.33,0,0,0-12.38,10.73,44.94,44.94,0,0,0-6.84,15.81,84,84,0,0,0-2.12,19.22q0,24.06,12,36.91T1129,317.07a125.54,125.54,0,0,0,18.28-1.06,67.07,67.07,0,0,0,10.49-2.24Z"/><path class="cls-3" d="M1361.62,328.17a263.87,263.87,0,0,0-18-24.33,276,276,0,0,0-21.11-22.68A266.05,266.05,0,0,0,1300,261.79a183.46,183.46,0,0,0-22.06-14.65v81h-16V164.73h16V240.8q9-8,20-18.49t21.71-21.08q10.74-10.59,20.19-20.25t15.1-16.25h19.35q-6.86,7.32-16.53,17.31t-20.53,20.61q-10.86,10.59-21.6,20.84t-19.24,18A163,163,0,0,1,1311,252q7.9,6.27,16,13.7t16,15.59q8,8.16,15,16.45t12.5,16.06a136.29,136.29,0,0,1,9.08,14.41Z"/><path class="cls-3" d="M1486,323.92q-6.86,1.89-18.4,4.25a144.5,144.5,0,0,1-28.31,2.35q-13.68,0-22.88-4a37.06,37.06,0,0,1-14.86-11.32,45.92,45.92,0,0,1-8.13-17.69,98.36,98.36,0,0,1-2.48-22.88v-68.4h15.33v63.45a108.36,108.36,0,0,0,1.89,21.94q1.89,9,6.13,14.5a23.83,23.83,0,0,0,11,8,47.53,47.53,0,0,0,16.39,2.48,130.83,130.83,0,0,0,18.87-1.18q8-1.17,10.14-2.12V206.22H1486Z"/><path class="cls-3" d="M1535.16,213.53q4-3.06,12.86-6.48a58,58,0,0,1,20.87-3.42,55.74,55.74,0,0,1,23.47,4.71,48.88,48.88,0,0,1,17.34,13.21,58.31,58.31,0,0,1,10.73,20.18,85.36,85.36,0,0,1,3.66,25.59,76.28,76.28,0,0,1-4.37,26.65,57.29,57.29,0,0,1-12.26,20,52.75,52.75,0,0,1-18.87,12.62,65.46,65.46,0,0,1-24.41,4.37q-16.28,0-26.89-2.13a136.72,136.72,0,0,1-17.46-4.48V148l15.33-2.83Zm0,100.25a68.61,68.61,0,0,0,10.5,2.24,125.54,125.54,0,0,0,18.28,1.06q19.82,0,31.84-12.86t12-36.91a84,84,0,0,0-2.12-19.22,45.12,45.12,0,0,0-6.84-15.81,34.42,34.42,0,0,0-12.38-10.73q-7.67-4-19-4a50.23,50.23,0,0,0-10.38,1.06,60.3,60.3,0,0,0-9.2,2.72,52.08,52.08,0,0,0-7.43,3.53,53.84,53.84,0,0,0-5.31,3.54Z"/><path class="cls-3" d="M1645.1,267.07q0-16,4.6-27.95a62,62,0,0,1,12-19.93,47.63,47.63,0,0,1,17-11.91,51.79,51.79,0,0,1,19.7-3.89q22.41,0,35.73,14.62t13.33,45.05c0,1.27,0,2.52-.12,3.78s-.2,2.44-.35,3.54h-85.62q.7,22.41,11.08,34.43t33,12q12.49,0,19.81-2.36a80.23,80.23,0,0,0,10.61-4l2.83,13.21q-3.3,1.89-12.38,4.49a78.66,78.66,0,0,1-21.32,2.58q-16,0-27.36-4.72A48.91,48.91,0,0,1,1659,312.83a52.13,52.13,0,0,1-10.61-20.16A93.74,93.74,0,0,1,1645.1,267.07Zm86.57-9.67q-.48-19.09-9-29.72t-24-10.61a32.06,32.06,0,0,0-14.75,3.3,37.66,37.66,0,0,0-11.32,8.85,41,41,0,0,0-7.55,12.85,52.57,52.57,0,0,0-3.18,15.33Z"/><path class="cls-3" d="M1815.92,203.86a83.2,83.2,0,0,1,14.27,1.18,44,44,0,0,1,9.31,2.36l-3.06,13.21a34.38,34.38,0,0,0-7.67-2,89,89,0,0,0-15.21-1.06,72.13,72.13,0,0,0-15.92,1.42,44.32,44.32,0,0,0-7.9,2.36V328.17h-15.33V211.88a113.26,113.26,0,0,1,16.27-5.31Q1801.06,203.87,1815.92,203.86Z"/><path class="cls-3" d="M1859.27,210.47q6.84-1.89,18.4-4.25a145.12,145.12,0,0,1,28.3-2.36q13.92,0,23.23,4a35.83,35.83,0,0,1,14.86,11.44,46.71,46.71,0,0,1,7.91,17.81,103.53,103.53,0,0,1,2.35,22.88v68.17H1939V265a115.16,115.16,0,0,0-1.77-21.93,36.73,36.73,0,0,0-5.89-14.63,23.11,23.11,0,0,0-10.85-8.14q-6.72-2.46-16.87-2.47a129.18,129.18,0,0,0-18.75,1.18q-7.9,1.18-10.26,2.12V328.17h-15.33Z"/><path class="cls-3" d="M1980.64,267.07q0-16,4.6-27.95a62,62,0,0,1,12-19.93,47.63,47.63,0,0,1,17-11.91,51.78,51.78,0,0,1,19.69-3.89q22.41,0,35.74,14.62T2083,263.06c0,1.27,0,2.52-.12,3.78s-.19,2.44-.35,3.54h-85.62q.71,22.41,11.09,34.43t33,12q12.49,0,19.81-2.36a80.23,80.23,0,0,0,10.61-4l2.83,13.21q-3.3,1.89-12.38,4.49a78.38,78.38,0,0,1-21.34,2.59q-16,0-27.36-4.72a48.8,48.8,0,0,1-18.64-13.21A52.15,52.15,0,0,1,1984,292.67,93.42,93.42,0,0,1,1980.64,267.07Zm86.57-9.67q-.48-19.09-9-29.72t-24.06-10.61a32,32,0,0,0-14.74,3.3,37.54,37.54,0,0,0-11.33,8.85,41,41,0,0,0-7.54,12.85,52.58,52.58,0,0,0-3.19,15.33Z"/><path class="cls-3" d="M2124.38,206.22H2173v13h-48.59v64.87a66,66,0,0,0,1.77,16.86,23.59,23.59,0,0,0,5.07,10,15.94,15.94,0,0,0,8,4.71,42.18,42.18,0,0,0,10.38,1.18c6.45,0,11.63-.74,15.57-2.24a66,66,0,0,0,9.2-4.13l3.77,12.74q-3.3,2.13-11.56,4.84a57.33,57.33,0,0,1-17.92,2.71q-11.33,0-19-2.95a27.38,27.38,0,0,1-12.27-9,36.72,36.72,0,0,1-6.48-15,103.58,103.58,0,0,1-1.89-21.23V170.37l15.33-2.83Z"/><path class="cls-3" d="M2187.62,267.07q0-16,4.6-27.95a61.68,61.68,0,0,1,12-19.93,47.55,47.55,0,0,1,17-11.91,51.78,51.78,0,0,1,19.69-3.89q22.41,0,35.74,14.62T2290,263.06c0,1.27,0,2.52-.12,3.78s-.2,2.44-.36,3.54H2203.9q.7,22.41,11.09,34.43t33,12q12.5,0,19.81-2.36a80.36,80.36,0,0,0,10.62-4l2.83,13.21c-2.21,1.26-6.33,2.76-12.39,4.49a78.38,78.38,0,0,1-21.34,2.59q-16,0-27.36-4.72a49,49,0,0,1-18.64-13.21,52.2,52.2,0,0,1-10.61-20.16A94,94,0,0,1,2187.62,267.07Zm86.56-9.67q-.46-19.09-9-29.72t-24.06-10.61a32,32,0,0,0-14.74,3.3,37.5,37.5,0,0,0-11.32,8.85,41,41,0,0,0-7.55,12.85,53,53,0,0,0-3.19,15.33Z"/><path class="cls-3" d="M2344,317.32q13.2,0,21.82-4.37t8.61-14.74a21.3,21.3,0,0,0-1.54-8.49,16.68,16.68,0,0,0-5.07-6.37,43.65,43.65,0,0,0-9.32-5.43q-5.77-2.58-14.27-6.13-6.84-2.82-13-5.78a52.35,52.35,0,0,1-10.85-6.84,29.73,29.73,0,0,1-7.55-9.31,28.45,28.45,0,0,1-2.83-13.21q0-14.86,11.21-24.06t30.78-9.2q12.5,0,20.64,2.12a66.66,66.66,0,0,1,11.44,3.78L2380.53,223a91.27,91.27,0,0,0-9.56-3.78q-6.72-2.34-19.69-2.36a43.58,43.58,0,0,0-9.79,1.07,25.81,25.81,0,0,0-8.14,3.31,17.92,17.92,0,0,0-5.66,5.67,15.71,15.71,0,0,0-2.12,8.39,17.91,17.91,0,0,0,1.89,8.51A18.71,18.71,0,0,0,2333,250a45.81,45.81,0,0,0,9,5.07c3.54,1.56,7.59,3.29,12.15,5.16q7.08,2.82,13.56,5.76a49.56,49.56,0,0,1,11.44,7.06,32.55,32.55,0,0,1,8,9.91q3.06,5.79,3.07,14.5,0,16.51-12.38,25T2344,331q-16,0-24.53-2.72a92.76,92.76,0,0,1-11.32-4.12l4-13.92a25,25,0,0,0,3.06,1.53,62.34,62.34,0,0,0,6.37,2.36,66.54,66.54,0,0,0,9.55,2.24A76.12,76.12,0,0,0,2344,317.32Z"/></svg>